<svg enable-background="new 0 0 52 52" fill="#fff" viewBox="0 0 52 52" xmlns="http://www.w3.org/2000/svg"><path d="m26 0c-14.336 0-26 11.663-26 26s11.664 26 26 26 26-11.663 26-26-11.664-26-26-26zm0 50c-13.233 0-24-10.767-24-24s10.767-24 24-24 24 10.767 24 24-10.767 24-24 24z"/><path d="m35.707 16.293c-.391-.391-1.023-.391-1.414 0l-8.293 8.293-8.293-8.293c-.391-.391-1.023-.391-1.414 0s-.391 1.023 0 1.414l8.293 8.293-8.293 8.293c-.391.391-.391 1.023 0 1.414.195.195.451.293.707.293s.512-.098.707-.293l8.293-8.293 8.293 8.293c.195.195.451.293.707.293s.512-.098.707-.293c.391-.391.391-1.023 0-1.414l-8.293-8.293 8.293-8.293c.391-.391.391-1.023 0-1.414z"/></svg>